<?xml version="1.0" encoding="UTF-8"?>
<svg id="Layer_1" xmlns="http://www.w3.org/2000/svg" version="1.1" viewBox="0 0 122.9 77.4">
  <!-- Generator: Adobe Illustrator 29.0.0, SVG Export Plug-In . SVG Version: 2.1.0 Build 186)  -->
  <defs>
    <style>
      .st0 {
        fill: #fff;
        fill-rule: evenodd;
      }
    </style>
  </defs>
  <path class="st0" d="M2.5,71.6h12.6c-1-.3-1.6-1.1-1.6-2.1V18c0-1.2,1-2.2,2.2-2.2h13.8l-.9,3.6h-11.2v49.5h87.9V19.4h-11l-1-3.6h13.5c1.2,0,2.1,1,2.1,2.2v51.5c0,1-.7,1.9-1.6,2.1h13.2c3.4,0,3.4,5.8,0,5.8H2.5c-3.4,0-3.4-5.8,0-5.8ZM57.7,0h8.6c.6,0,1.2.5,1.2,1.1h0v2.9h13.6c.2-.7.6-1.3,1.1-1.8h0c1.8-1.8,4.7-1.8,6.6,0,0,0,0,0,0,0h0c1.8,1.8,1.8,4.7,0,6.6,0,0,0,0,0,0h0c-1.8,1.8-4.7,1.8-6.6,0,0,0,0,0,0,0h0c-.5-.5-.9-1.1-1.1-1.8h-7c2.3,1.3,4.3,3,6.1,4.9,3.5,3.9,5.8,8.7,6.7,13.8h1.9c.8,0,1.4.6,1.4,1.3,0,0,0,0,0,0v6.3c0,.8-.6,1.4-1.4,1.4,0,0,0,0,0,0h-6.2c-.8,0-1.4-.6-1.4-1.4v-6.3c0-.8.6-1.4,1.4-1.4h1.4c-.8-4.4-2.9-8.5-5.9-11.9-2.8-3.1-6.5-5.4-10.5-6.5v2.4c0,.6-.5,1.2-1.1,1.2,0,0,0,0,0,0h-8.6c-.6,0-1.1-.5-1.2-1.1,0,0,0,0,0,0v-2.5c-4.1,1.2-7.9,3.5-10.7,6.7-2.9,3.3-4.8,7.3-5.6,11.6h1.4c.8,0,1.4.6,1.4,1.4h0v6.3c0,.8-.6,1.4-1.4,1.4h-6.2c-.8,0-1.4-.6-1.4-1.4,0,0,0,0,0,0v-6.3c0-.8.6-1.4,1.4-1.4,0,0,0,0,0,0h1.9c.9-5,3.1-9.7,6.4-13.5,1.8-2.1,3.9-3.8,6.3-5.2h-8.1c-.2.7-.6,1.3-1.1,1.7h0c-.9.9-2.1,1.4-3.3,1.4-1.2,0-2.4-.5-3.3-1.4h0c-1.8-1.8-1.8-4.7,0-6.6,0,0,0,0,0,0h0c1.8-1.8,4.7-1.8,6.6,0,0,0,0,0,0,0h0c.5.5.9,1.1,1.1,1.8h14.7V1.1C56.6.5,57.1,0,57.7,0c0,0,0,0,0,0ZM74.7,40.7l-4.5,11.4-16.4-.2-4.5-11.2c3.9-7,7.9-15.5,9.9-23l2.2.2v20.1c-1.2.4-1.7,1.6-1.3,2.7s1.6,1.7,2.7,1.3,1.7-1.6,1.3-2.7c-.2-.6-.8-1.1-1.4-1.3v-19.9c0,0,2.5-.1,2.5-.1,1.8,7.5,5.7,16,9.6,22.7h0ZM69.8,57h-15.9v-3.2h15.9v3.2ZM57.9,72.6h7.1c1.6,0,1.6,3.1,0,3.1h-7.1c-1.6,0-1.6-3.1,0-3.1Z"/>
</svg>