<?xml version="1.0" encoding="UTF-8"?>
<svg id="Layer_1" xmlns="http://www.w3.org/2000/svg" version="1.1" viewBox="0 0 122.9 94.3">
  <!-- Generator: Adobe Illustrator 29.0.0, SVG Export Plug-In . SVG Version: 2.1.0 Build 186)  -->
  <defs>
    <style>
      .st0 {
        fill: #fff;
        fill-rule: evenodd;
      }
    </style>
  </defs>
  <path class="st0" d="M90.4,26.5h25.5c1.9,0,3.7.8,5,2.1,1.3,1.3,2.1,3,2.1,5v53.8c0,1.9-.8,3.7-2.1,5-1.3,1.3-3,2.1-5,2.1h-25.5c-1.9,0-3.7-.8-5-2.1-1.3-1.3-2.1-3-2.1-5v-53.8c0-1.9.8-3.7,2.1-5,1.3-1.3,3-2.1,5-2.1h0ZM3,0h106.1c1.7,0,3.1,1.4,3.1,3v18.4h-6.5v-13.1c0-1.5-1.2-2.7-2.7-2.7H9.2c-1.5,0-2.7,1.2-2.7,2.7v52.5c0,1.5,1.2,2.7,2.7,2.7h67.5v12.7H3c-1.7,0-3-1.4-3-3.1V3C0,1.4,1.4,0,3,0h0ZM42.3,80.6h27.7c0,4.8,2,9.1,7.4,12.4h-42.4c4.3-3.1,7.4-6.9,7.4-12.4h0ZM56.1,66.1c2.2,0,3.9,1.8,3.9,3.9s-1.8,3.9-3.9,3.9-3.9-1.8-3.9-3.9c0-2.2,1.7-3.9,3.9-3.9h0ZM103.1,85.7c1.6,0,2.9,1.3,2.9,2.9s-1.3,2.9-2.9,2.9-2.9-1.3-2.9-2.9,1.3-2.9,2.9-2.9h0ZM86.3,83.5h33.6v-46.1h-33.6v46.1h0Z"/>
</svg>