<?xml version="1.0" encoding="UTF-8"?>
<svg id="Layer_1" xmlns="http://www.w3.org/2000/svg" version="1.1" viewBox="0 0 122.9 82.5">
  <!-- Generator: Adobe Illustrator 29.0.0, SVG Export Plug-In . SVG Version: 2.1.0 Build 186)  -->
  <defs>
    <style>
      .st0 {
        fill: #fff;
      }
    </style>
  </defs>
  <path class="st0" d="M60.6,52.9l14.3-24.7,9.7,24.6-4.8,5.9c-1,.7-2.9,3.8-4.7,8H19.2v-4.8l6-.3,5.9-14.5,3,10.4h8.9l7.7-19.9,9.8,15.5h0ZM10.8,0h83.7c6,0,10.8,4.9,10.8,10.8v16.7l-5.6,6.5-1.2,1.5V11.8c0-2.2-1.8-4-4-4H11.8c-2.2,0-4,1.8-4,4v58.6c0,2.2,1.8,4,4,4h60.3c-.5,2.4-.9,4.8-1,7.2v.5H10.8c-6,0-10.8-4.8-10.8-10.8V10.8C0,4.9,4.9,0,10.8,0ZM97.5,78.9l-15.2,3.6,1.7-16.4,13.5,12.8ZM88.7,61l20-22.2c.3-.3.6-.5,1-.5.3,0,.5,0,.7.2l12.1,11c.2.2.4.5.4.9,0,.4-.1.7-.4,1l-20.2,22.4-13.5-12.8h0ZM30.5,22.3c3.9,0,7.1,3.2,7.1,7.1s-3.2,7.1-7.1,7.1-7.1-3.2-7.1-7.1h0c0-3.9,3.2-7.1,7.1-7.1Z"/>
</svg>